<svg width="28" height="25" viewBox="0 0 28 25" fill="none" xmlns="http://www.w3.org/2000/svg">
<path d="M27.0697 23.351H0.889999V24.729H27.0697V23.351Z" fill="black"/>
<path d="M13.9797 18.5284C11.1695 18.5284 8.85546 20.6325 8.51508 23.3509H19.4438C19.1031 20.6329 16.7891 18.5284 13.9797 18.5284Z" fill="black"/>
<path d="M14.6689 12.3278H13.2904V16.4615H14.6689V12.3278Z" fill="black"/>
<path d="M6.68702 15.7731L5.71301 16.7474L8.13405 19.1677L9.10806 18.1935L6.68702 15.7731Z" fill="black"/>
<path d="M21.3004 15.7792L18.8506 18.1941L19.8245 19.1689L22.274 16.7482L21.3004 15.7792Z" fill="black"/>
<path d="M17.8571 4.63249L13.9551 0.729004L10.0862 4.59872L11.0605 5.57306L13.2904 3.34271V8.93162H14.6689V3.39145L16.8823 5.60644L17.8571 4.63249Z" fill="black"/>
</svg>
