<svg width="27" height="25" viewBox="0 0 27 25" fill="none" xmlns="http://www.w3.org/2000/svg">
<path d="M26.9468 23.2104H0.890015V24.582H26.9468V23.2104Z" fill="black"/>
<path d="M13.9182 18.4105C11.1212 18.4105 8.81807 20.5051 8.47928 23.2104H19.3567C19.0176 20.5055 16.7144 18.4105 13.9182 18.4105Z" fill="black"/>
<path d="M14.6042 12.239H13.2322V16.3533H14.6042V12.239Z" fill="black"/>
<path d="M6.65983 15.6681L5.6904 16.6378L8.10007 19.0468L9.0695 18.0771L6.65983 15.6681Z" fill="black"/>
<path d="M21.2046 15.6742L18.7663 18.0778L19.7356 19.048L22.1736 16.6387L21.2046 15.6742Z" fill="black"/>
<path d="M16.8073 3.91143L14.6042 6.11603V0.582001H13.2323V6.09769L11.0128 3.87782L10.043 4.84758L13.927 8.7316L17.7767 4.88119L16.8073 3.91143Z" fill="black"/>
</svg>
